HIERARCHY
ROOT Hips
{
	OFFSET 0.000000 0.000000 0.000000
	CHANNELS 6 Xposition Yposition Zposition Xrotation Yrotation Zrotation
	JOINT LeftUpLeg_virtual
	{
		OFFSET 0.000000 0.000000 0.000000
		CHANNELS 3 Xrotation Yrotation Zrotation
		JOINT LeftUpLeg
		{
			OFFSET 13.026900 -6.336304 -1.092800
			CHANNELS 3 Xrotation Yrotation Zrotation
			JOINT LeftLeg
			{
				OFFSET 0.524474 -46.096886 9.782700
				CHANNELS 3 Xrotation Yrotation Zrotation
				JOINT LeftFoot
				{
					OFFSET -0.524474 -53.427422 -12.948200
					CHANNELS 3 Xrotation Yrotation Zrotation
					JOINT LeftToeBase
					{
						OFFSET 0.192200 -14.009700 16.364100
						CHANNELS 3 Xrotation Yrotation Zrotation
						JOINT LeftToe_End
						{
							OFFSET -1.784700 -0.561700 9.474800
							CHANNELS 3 Xrotation Yrotation Zrotation
							End Site
							{
								OFFSET 0 0 0
							}
						}
					}
				}
			}
		}
	}
	JOINT RightUpLeg_virtual
	{
		OFFSET 0.000000 0.000000 0.000000
		CHANNELS 3 Xrotation Yrotation Zrotation
		JOINT RightUpLeg
		{
			OFFSET -12.883000 -6.336304 -1.092800
			CHANNELS 3 Xrotation Yrotation Zrotation
			JOINT RightLeg
			{
				OFFSET -0.524587 -46.096825 9.782800
				CHANNELS 3 Xrotation Yrotation Zrotation
				JOINT RightFoot
				{
					OFFSET 0.524587 -53.427383 -12.948300
					CHANNELS 3 Xrotation Yrotation Zrotation
					JOINT RightToeBase
					{
						OFFSET -0.192200 -14.009700 16.364100
						CHANNELS 3 Xrotation Yrotation Zrotation
						JOINT RightToe_End
						{
							OFFSET 1.784700 -0.561700 9.474800
							CHANNELS 3 Xrotation Yrotation Zrotation
							End Site
							{
								OFFSET 0 0 0
							}
						}
					}
				}
			}
		}
	}
	JOINT Spine_virtual
	{
		OFFSET 0.000000 0.000000 0.000000
		CHANNELS 3 Xrotation Yrotation Zrotation
		JOINT Spine
		{
			OFFSET 0.072000 7.257294 -0.789700
			CHANNELS 3 Xrotation Yrotation Zrotation
			JOINT Spine1
			{
				OFFSET 0.000000 12.508769 -0.658067
				CHANNELS 3 Xrotation Yrotation Zrotation
				JOINT Spine1_split
				{
					OFFSET 0.000000 12.508769 -0.658067
					CHANNELS 3 Xrotation Yrotation Zrotation
					JOINT Spine2
					{
						OFFSET 0.000000 12.508769 -0.658067
						CHANNELS 3 Xrotation Yrotation Zrotation
						JOINT Neck_virtual
						{
							OFFSET 0.000000 0.000000 0.000000
							CHANNELS 3 Xrotation Yrotation Zrotation
							JOINT Neck
							{
								OFFSET 0.000000 14.033295 7.520400
								CHANNELS 3 Xrotation Yrotation Zrotation
								JOINT Head
								{
									OFFSET 0.000000 8.198502 5.703100
									CHANNELS 3 Xrotation Yrotation Zrotation
									JOINT HeadTop_End
									{
										OFFSET 0.000000 17.760803 13.332701
										CHANNELS 3 Xrotation Yrotation Zrotation
										End Site
										{
											OFFSET 0 0 0
										}
									}
								}
							}
						}
						JOINT LeftShoulder_virtual
						{
							OFFSET 0.000000 0.000000 0.000000
							CHANNELS 3 Xrotation Yrotation Zrotation
							JOINT LeftShoulder
							{
								OFFSET 6.292450 5.785301 -0.669000
								CHANNELS 3 Xrotation Yrotation Zrotation
								JOINT LeftShoulder_split
								{
									OFFSET 6.292450 5.785301 -0.669000
									CHANNELS 3 Xrotation Yrotation Zrotation
									JOINT LeftArm
									{
										OFFSET 13.907140 -6.093903 1.965100
										CHANNELS 3 Xrotation Yrotation Zrotation
										JOINT LeftForeArm
										{
											OFFSET 34.140198 0.000000 0.000000
											CHANNELS 3 Xrotation Yrotation Zrotation
											JOINT LeftHand
											{
												OFFSET 40.960209 0.000000 0.000000
												CHANNELS 3 Xrotation Yrotation Zrotation
												End Site
												{
													OFFSET 0 0 0
												}
											}
										}
									}
								}
							}
						}
						JOINT RightShoulder_virtual
						{
							OFFSET 0.000000 0.000000 0.000000
							CHANNELS 3 Xrotation Yrotation Zrotation
							JOINT RightShoulder
							{
								OFFSET -6.292450 5.785301 -0.669000
								CHANNELS 3 Xrotation Yrotation Zrotation
								JOINT RightShoulder_split
								{
									OFFSET -6.292450 5.785301 -0.669000
									CHANNELS 3 Xrotation Yrotation Zrotation
									JOINT RightArm
									{
										OFFSET -13.907140 -6.093903 1.965100
										CHANNELS 3 Xrotation Yrotation Zrotation
										JOINT RightForeArm
										{
											OFFSET -34.140198 0.000000 0.000000
											CHANNELS 3 Xrotation Yrotation Zrotation
											JOINT RightHand
											{
												OFFSET -40.960209 0.000000 0.000000
												CHANNELS 3 Xrotation Yrotation Zrotation
												End Site
												{
													OFFSET 0 0 0
												}
											}
										}
									}
								}
							}
						}
					}
				}
			}
		}
	}
}
MOTION
Frames: 6
Frame Time: 0.03333333
0.063323 113.499840 -2.261395 0.000000 0.000000 0.000000 3.497065 -32.482518 2.281269 -17.535344 15.335187 15.738436 21.785221 12.381613 -3.934230 -5.432468 -3.367958 -7.380795 1.508954 -0.059303 -0.513081 0.000000 0.000000 0.000000 4.033923 -31.831687 2.336050 -20.210653 0.170359 -9.538353 20.140406 7.129137 -0.671258 -2.407370 -1.458482 5.719682 -2.706886 0.165949 0.680291 0.000000 0.000000 0.000000 3.559350 -31.121989 1.445246 7.502995 0.008253 -1.245514 1.219001 -0.870699 2.373777 0.446010 0.362885 0.572836 0.000000 0.000000 0.000000 1.048642 -0.398247 2.545454 -4.565274 17.716548 -7.072511 -5.924841 15.261475 0.474390 0.000000 0.000000 0.000000 1.137496 -0.642489 2.629245 0.970848 -10.224213 0.452178 1.462301 -0.028683 0.269654 -59.743979 1.361658 -39.329315 9.719796 -60.254406 11.979231 0.000000 0.000000 0.000000 0.761691 -0.519616 2.665146 4.769080 6.196953 7.321149 -0.737779 -0.148972 -1.687779 0.040362 0.609438 63.298027 12.419190 23.349784 -3.787820 0.000000 0.000000 0.000000 
0.032911 113.497604 -2.183788 0.000000 0.000000 0.000000 3.609674 -32.444676 2.309187 -17.601807 15.301505 15.735439 21.773999 12.380706 -3.883117 -5.453063 -3.341173 -7.415577 1.474090 -0.059251 -0.512945 0.000000 0.000000 0.000000 4.150263 -31.762654 2.350617 -20.224709 0.282672 -9.523831 20.207212 7.174672 -0.683648 -2.347793 -1.420229 5.794877 -2.744355 0.149898 0.684533 0.000000 0.000000 0.000000 3.682606 -31.058943 1.469878 7.470859 0.009506 -1.268937 1.200784 -0.886719 2.377616 0.508416 0.318104 0.646313 0.000000 0.000000 0.000000 1.043544 -0.403701 2.564699 -4.516946 17.865091 -7.128676 -5.903853 15.312260 0.480650 0.000000 0.000000 0.000000 1.117420 -0.644989 2.644652 0.947853 -10.114202 0.333727 1.550363 -0.114897 0.342438 -59.667228 1.423737 -39.252472 9.881794 -60.262657 12.055304 0.000000 0.000000 0.000000 0.761251 -0.521780 2.674977 4.716864 6.250617 7.465562 -0.910917 -0.212496 -1.655396 0.119365 0.651046 63.271089 12.404598 23.141840 -3.780894 0.000000 0.000000 0.000000 
-0.015290 113.492867 -2.126007 0.000000 0.000000 0.000000 3.806975 -32.351748 2.357536 -17.729557 15.168891 15.725370 21.770610 12.382625 -3.850381 -5.490970 -3.300945 -7.449638 1.443040 -0.060119 -0.507236 0.000000 0.000000 0.000000 4.331942 -31.689110 2.389159 -20.247903 0.340748 -9.500774 20.256651 7.187196 -0.689198 -2.375925 -1.405957 5.819357 -2.725121 0.136055 0.692242 0.000000 0.000000 0.000000 3.912270 -30.976745 1.528811 7.437486 0.018818 -1.295199 1.169607 -0.877584 2.377617 0.540961 0.236830 0.686705 0.000000 0.000000 0.000000 1.039158 -0.382437 2.572939 -4.416936 18.179274 -7.228254 -5.963237 15.529584 0.567815 0.000000 0.000000 0.000000 1.098108 -0.620536 2.647997 0.917782 -9.924232 0.210580 1.626135 -0.135838 0.442084 -59.647530 1.488228 -39.198193 9.958705 -60.363238 12.053055 0.000000 0.000000 0.000000 0.753193 -0.500437 2.674285 4.675241 6.319597 7.628849 -1.009440 -0.281028 -1.690024 0.211489 0.667224 63.250598 12.357517 22.930171 -3.786808 0.000000 0.000000 0.000000 
-0.078788 113.482651 -2.081520 0.000000 0.000000 0.000000 4.064076 -32.176888 2.418262 -17.928313 14.958259 15.714179 21.775799 12.397653 -3.844721 -5.535783 -3.252177 -7.460794 1.449114 -0.061899 -0.501405 0.000000 0.000000 0.000000 4.564017 -31.586859 2.446229 -20.286374 0.346553 -9.476304 20.263453 7.179308 -0.690304 -2.474944 -1.403150 5.820775 -2.666533 0.127752 0.697591 0.000000 0.000000 0.000000 4.216327 -30.866851 1.614903 7.401664 0.035443 -1.313498 1.125894 -0.843915 2.372151 0.493184 0.149742 0.679304 0.000000 0.000000 0.000000 1.031755 -0.339912 2.572922 -4.255559 18.668700 -7.407711 -6.119225 15.928297 0.704694 0.000000 0.000000 0.000000 1.081762 -0.575402 2.640334 0.889040 -9.681810 0.107531 1.680875 -0.047286 0.574326 -59.703449 1.551939 -39.198886 9.928408 -60.474686 11.955855 0.000000 0.000000 0.000000 0.739652 -0.459500 2.664789 4.643079 6.413376 7.779635 -1.019998 -0.315903 -1.791152 0.304157 0.674162 63.260570 12.287723 22.701756 -3.802787 0.000000 0.000000 0.000000 
-0.157582 113.472519 -2.053192 0.000000 0.000000 0.000000 4.355437 -31.911699 2.484548 -18.203004 14.682634 15.705713 21.785691 12.437909 -3.873027 -5.569527 -3.199690 -7.435958 1.495159 -0.063099 -0.494179 0.000000 0.000000 0.000000 4.838767 -31.400883 2.517195 -20.319878 0.309176 -9.452533 20.230710 7.171046 -0.691020 -2.641149 -1.397286 5.820315 -2.615638 0.125175 0.699227 0.000000 0.000000 0.000000 4.569154 -30.695898 1.717397 7.357557 0.056507 -1.319152 1.077456 -0.792120 2.360256 0.424353 0.038273 0.680253 0.000000 0.000000 0.000000 1.019640 -0.282838 2.565332 -4.016652 19.344590 -7.714861 -6.380278 16.526097 0.861858 0.000000 0.000000 0.000000 1.070226 -0.516380 2.626574 0.870114 -9.415176 0.037929 1.710337 0.113600 0.711090 -59.850789 1.646895 -39.279991 9.794130 -60.536827 11.765005 0.000000 0.000000 0.000000 0.727403 -0.405342 2.649222 4.618953 6.533975 7.885924 -0.981544 -0.294403 -1.923940 0.405451 0.660837 63.310786 12.205375 22.474886 -3.825144 0.000000 0.000000 0.000000 
-0.257308 113.461365 -2.040035 0.000000 0.000000 0.000000 4.667245 -31.549607 2.556737 -18.535513 14.358376 15.698589 21.787953 12.497132 -3.935794 -5.563914 -3.159881 -7.379896 1.549366 -0.064376 -0.478090 0.000000 0.000000 0.000000 5.130228 -31.093309 2.591593 -20.329203 0.227901 -9.426442 20.166743 7.162249 -0.695194 -2.873220 -1.392794 5.807397 -2.578503 0.126921 0.700131 0.000000 0.000000 0.000000 4.934115 -30.434797 1.824993 7.298545 0.081337 -1.312366 1.030970 -0.730921 2.340549 0.359943 -0.113985 0.710930 0.000000 0.000000 0.000000 1.003554 -0.217869 2.551748 -3.679254 20.208969 -8.197258 -6.744262 17.350970 1.001375 0.000000 0.000000 0.000000 1.070275 -0.451017 2.610947 0.865662 -9.154608 0.017982 1.725572 0.234849 0.794920 -60.125786 1.768241 -39.475915 9.586925 -60.541752 11.508117 0.000000 0.000000 0.000000 0.721834 -0.344980 2.629724 4.601248 6.680826 7.924013 -0.908164 -0.247381 -2.046547 0.504870 0.586856 63.408102 12.122762 22.274837 -3.852911 0.000000 0.000000 0.000000 
